<!DOCTYPE svg PUBLIC "-//W3C//DTD SVG 1.1//EN" "http://www.w3.org/Graphics/SVG/1.1/DTD/svg11.dtd">

<!-- Uploaded to: SVG Repo, www.svgrepo.com, Transformed by: SVG Repo Mixer Tools -->
<svg fill="#262E33" height="800px" width="800px" version="1.1" id="Layer_1" xmlns="http://www.w3.org/2000/svg" xmlns:xlink="http://www.w3.org/1999/xlink" viewBox="0 0 512 512" xml:space="preserve" stroke="#000000">

<g id="SVGRepo_bgCarrier" stroke-width="0"/>

<g id="SVGRepo_tracerCarrier" stroke-linecap="round" stroke-linejoin="round"/>

<g id="SVGRepo_iconCarrier"> <g> <g> <path d="M501.801,146.134H346.773v-9.774c0-27.088-22.037-49.127-49.127-49.127h-1.36V33.372c0-5.633-4.567-10.199-10.199-10.199 h-60.175c-5.632,0-10.199,4.566-10.199,10.199v53.862h-1.359c-27.089,0-49.127,22.037-49.127,49.127v9.774H10.199 C4.567,146.134,0,150.7,0,156.333v322.295c0,5.633,4.567,10.199,10.199,10.199h491.602c5.632,0,10.199-4.566,10.199-10.199 V156.333C512,150.7,507.433,146.134,501.801,146.134z M236.112,43.571h39.777v70.182h-39.777V43.571z M185.625,136.36 c0-15.84,12.888-28.728,28.728-28.728h1.36v16.319c0,5.633,4.567,10.199,10.199,10.199h60.175c5.632,0,10.199-4.566,10.199-10.199 v-16.319h1.36c15.84,0,28.728,12.887,28.728,28.728v9.774H185.625V136.36z M491.602,468.429H20.398V166.533h471.203V468.429z"/> </g> </g> <g> <g> <path d="M445.027,305.966H311.004c-5.632,0-10.199,4.566-10.199,10.199s4.566,10.199,10.199,10.199h134.023 c5.632,0,10.199-4.566,10.199-10.199S450.659,305.966,445.027,305.966z"/> </g> </g> <g> <g> <path d="M445.578,240.477h-8.032c-5.632,0-10.199,4.566-10.199,10.199c0,5.633,4.567,10.199,10.199,10.199h8.032 c5.632,0,10.199-4.566,10.199-10.199C455.777,245.043,451.21,240.477,445.578,240.477z"/> </g> </g> <g> <g> <path d="M398.789,240.477h-87.785c-5.632,0-10.199,4.566-10.199,10.199c0,5.633,4.566,10.199,10.199,10.199h87.785 c5.632,0,10.199-4.566,10.199-10.199C408.988,245.043,404.421,240.477,398.789,240.477z"/> </g> </g> <g> <g> <path d="M445.027,372.261H311.004c-5.632,0-10.199,4.566-10.199,10.199c0,5.633,4.566,10.199,10.199,10.199h134.023 c5.632,0,10.199-4.566,10.199-10.199C455.226,376.827,450.659,372.261,445.027,372.261z"/> </g> </g> <g> <g> <path d="M257.02,215.744H69.355c-5.632,0-10.199,4.566-10.199,10.199v187.665c0,5.633,4.567,10.199,10.199,10.199H257.02 c5.632,0,10.199-4.566,10.199-10.199V225.943C267.219,220.31,262.652,215.744,257.02,215.744z M246.821,403.409H79.554V236.142 h167.267V403.409z"/> </g> </g> <g> <g> <path d="M193.301,317.762c5.109-6.507,8.167-14.697,8.167-23.592c0-21.108-17.173-38.282-38.282-38.282 s-38.282,17.173-38.282,38.282c0,8.896,3.059,17.086,8.167,23.592c-23.909,9.402-40.49,29.625-40.49,53.009 c0,5.633,4.567,10.199,10.199,10.199h120.811c5.632,0,10.199-4.566,10.199-10.199C233.792,347.387,217.21,327.164,193.301,317.762 z M163.187,276.287c9.861,0,17.883,8.023,17.883,17.883s-8.023,17.883-17.883,17.883s-17.883-8.023-17.883-17.883 C145.304,284.309,153.327,276.287,163.187,276.287z M114.796,360.572c5.877-16.141,25.346-28.025,48.391-28.025 s42.515,11.884,48.391,28.025H114.796z"/> </g> </g> <g> <g> <path d="M256,52.433c-5.632,0-10.199,4.566-10.199,10.199v2.163c0,5.633,4.567,10.199,10.199,10.199s10.199-4.566,10.199-10.199 v-2.163C266.199,56.999,261.632,52.433,256,52.433z"/> </g> </g> </g>

</svg>